<?xml version="1.0" encoding="UTF-8"?>
<svg id="logo_epfl_2019" width="182.4" height="53" data-name="logo epfl 2019" version="1.1" viewBox="0 0 182.4 53" xmlns="http://www.w3.org/2000/svg" xmlns:cc="http://creativecommons.org/ns#" xmlns:dc="http://purl.org/dc/elements/1.1/" xmlns:rdf="http://www.w3.org/1999/02/22-rdf-syntax-ns#">
 <metadata id="metadata27">
  <rdf:RDF>
   <cc:Work rdf:about="">
    <dc:format>image/svg+xml</dc:format>
    <dc:type rdf:resource="http://purl.org/dc/dcmitype/StillImage"/>
    <dc:title>epfl-logo-new</dc:title>
   </cc:Work>
  </rdf:RDF>
 </metadata>
 <defs id="defs4">
  <style id="style2">.cls-1{fill:red;}</style>
 </defs>
 <title id="title6">epfl-logo-new</title>
 <path id="polygon8" d="m0 21.6h11.43v-11.8h26.91v-9.8h-38.34z" fill="#f00"/>
 <path id="polygon10" d="m0 53h38.34v-9.8h-26.91v-11.8h-11.43z" fill="#f00"/>
 <path id="rect12" d="m11.43 21.6h24.61v9.8h-24.61z" fill="#f00"/>
 <path id="path14" class="cls-1" d="M86,4.87a16.12,16.12,0,0,0-5.68-3.53A23.76,23.76,0,0,0,71.82,0H48.14V53H59.57V31.4H71.82a23.76,23.76,0,0,0,8.46-1.34A16.12,16.12,0,0,0,86,26.53a13.43,13.43,0,0,0,3.19-5,17.38,17.38,0,0,0,0-11.62A13.52,13.52,0,0,0,86,4.87ZM78,18.73a5.7,5.7,0,0,1-2.26,1.8,11.33,11.33,0,0,1-3.27.85,32,32,0,0,1-3.86.22H59.57V9.8h9.05a32,32,0,0,1,3.86.22,11,11,0,0,1,3.27.86A5.59,5.59,0,0,1,78,12.67a5,5,0,0,1,.86,3A5,5,0,0,1,78,18.73Z" fill="#f00"/>
 <path id="polygon16" d="m155.47 43.2v-43.2h-11.43v53h38.34v-9.8z" fill="#f00"/>
 <path id="polygon18" d="m97.42 21.6h11.43v-11.8h26.91v-9.8h-38.34z" fill="#f00"/>
 <path id="rect20" d="m97.42 31.4h11.43v21.6h-11.43z" fill="#f00"/>
 <path id="rect22" d="m108.85 21.6h24.61v9.8h-24.61z" fill="#f00"/>
</svg>